<?xml version="1.0" standalone="no"?>
<!DOCTYPE svg PUBLIC "-//W3C//DTD SVG 20010904//EN"
 "http://www.w3.org/TR/2001/REC-SVG-20010904/DTD/svg10.dtd">
<svg version="1.0" xmlns="http://www.w3.org/2000/svg"
 width="640.000000pt" height="640.000000pt" viewBox="0 0 640.000000 640.000000"
 preserveAspectRatio="xMidYMid meet">

<g transform="translate(0.000000,640.000000) scale(0.100000,-0.100000)"
fill="#000000" stroke="none">
<path d="M1367 5303 c-4 -3 -7 -941 -7 -2084 l0 -2079 23 -5 c12 -3 299 -4
637 -3 l615 3 5 899 c5 818 6 896 21 880 15 -18 59 -87 260 -402 46 -73 162
-253 258 -400 95 -147 275 -424 399 -617 124 -192 230 -353 236 -357 15 -10
1178 -10 1193 0 15 9 21 4148 6 4163 -5 5 -269 8 -634 7 l-624 -3 -5 -865 -5
-865 -45 65 c-46 67 -84 124 -495 745 -366 553 -539 816 -570 865 -15 25 -33
48 -39 52 -14 10 -1220 10 -1229 1z m3157 -317 c65 -38 104 -94 100 -143 -2
-21 -3 -46 -3 -55 -1 -10 -9 -19 -18 -19 -17 -1 -17 -2 0 -6 16 -4 25 -24 10
-22 -19 3 -33 -2 -33 -12 0 -5 6 -7 13 -3 8 5 8 3 -2 -9 -7 -9 -18 -14 -24
-10 -6 3 -7 1 -3 -5 4 -7 1 -12 -6 -12 -10 0 -10 -2 1 -9 12 -8 12 -13 -3 -35
-16 -26 -34 -38 -20 -13 4 6 -4 1 -19 -13 -15 -14 -27 -31 -27 -39 0 -11 -3
-11 -16 0 -13 11 -15 9 -9 -17 5 -26 4 -27 -6 -8 l-11 21 -24 -22 c-15 -14
-32 -21 -44 -18 -11 3 -20 1 -20 -4 0 -5 -32 -8 -70 -7 -45 1 -68 -1 -64 -8
10 -16 -27 7 -59 36 -45 41 -67 101 -67 181 0 83 23 141 78 198 66 68 117 88
223 83 62 -2 85 -8 123 -30z m-2083 -123 c40 -60 96 -142 124 -183 29 -41 245
-365 482 -720 553 -830 595 -895 586 -904 -4 -3 -1 -6 6 -6 7 0 10 -4 6 -9
-10 -17 -46 -8 -40 9 3 11 0 17 -10 17 -19 0 -19 -7 0 -33 13 -20 13 -21 -7
-20 -12 0 -23 -5 -26 -12 -2 -7 2 -11 8 -10 20 5 22 -18 4 -37 -17 -16 -17
-17 0 -14 9 2 16 8 16 13 -1 5 5 13 14 18 9 5 14 13 11 19 -3 5 1 6 9 3 18 -7
22 -25 5 -22 -6 2 -14 -3 -17 -11 -3 -9 0 -11 9 -7 8 4 7 2 -2 -6 -9 -7 -14
-20 -12 -28 4 -12 3 -13 -5 -1 -10 14 -36 6 -27 -9 3 -4 -6 -7 -20 -6 -14 2
-30 -3 -36 -10 -8 -10 -8 -14 0 -14 6 0 11 -4 11 -9 0 -10 -39 -27 -53 -23 -5
1 -6 -2 -2 -8 3 -6 10 -8 14 -5 5 2 18 -4 30 -14 22 -19 22 -20 2 -30 -13 -7
-22 -8 -26 -1 -4 7 -12 7 -24 0 -10 -5 -21 -6 -25 -3 -3 3 -6 2 -6 -4 0 -13
-49 -35 -61 -28 -5 4 -9 2 -9 -4 0 -5 -3 -18 -7 -28 -5 -15 -2 -15 19 5 13 12
27 22 30 22 12 0 1 -34 -13 -39 -8 -2 -21 -13 -31 -23 -16 -19 -16 -19 -23 1
-3 12 -3 26 1 33 4 7 -5 2 -21 -12 -16 -14 -25 -19 -21 -12 4 6 2 12 -3 12 -6
0 -11 5 -11 11 0 5 4 7 10 4 5 -3 7 0 4 8 -2 7 -15 12 -27 11 -12 -1 -27 -3
-34 -3 -7 -1 -10 -8 -6 -17 6 -16 7 -16 18 0 12 15 13 15 19 0 9 -23 7 -34 -4
-34 -5 0 -7 8 -4 18 5 13 4 14 -4 3 -15 -21 -4 -39 21 -35 21 4 21 4 2 -5 -11
-5 -15 -10 -9 -10 7 -1 14 -10 17 -21 3 -11 1 -17 -4 -14 -15 9 -839 1253
-1137 1717 -79 122 -210 311 -293 419 -82 109 -149 200 -149 203 0 3 148 5
329 5 l329 0 73 -107z m-637 -167 c141 -161 239 -322 286 -471 38 -118 34
-294 -7 -395 -3 -8 -7 -17 -8 -20 -18 -65 -107 -194 -187 -273 -26 -26 -48
-51 -48 -56 0 -5 -7 -12 -16 -15 -15 -6 -15 -4 -3 11 11 14 9 14 -9 -2 -13
-11 -19 -21 -13 -23 6 -2 -4 -18 -23 -35 -18 -18 -38 -42 -45 -54 -6 -13 -16
-23 -21 -23 -5 0 -9 190 -10 435 l-1 435 52 0 c46 0 55 -4 86 -37 l36 -38 -7
43 c-4 24 -13 59 -21 77 -13 33 -16 34 -77 37 l-63 3 -3 253 c-1 147 1 252 7
250 5 -1 48 -48 95 -102z m2379 -452 c29 -15 74 -34 101 -44 l49 -16 -46 -29
c-25 -16 -43 -33 -41 -37 3 -4 -2 -8 -11 -8 -8 0 -18 -8 -22 -17 -7 -21 -74
-93 -85 -93 -5 0 -8 61 -8 135 0 74 2 135 5 135 3 0 29 -12 58 -26z m459 -27
c-19 -22 -46 -107 -33 -107 6 0 7 -43 1 -65 -1 -5 -2 -31 -1 -57 1 -30 -3 -48
-10 -48 -8 0 -7 -5 2 -16 10 -12 10 -20 1 -34 -7 -12 -8 -21 -2 -25 12 -7 4
-25 -11 -25 -6 0 -7 4 -4 10 3 6 -1 7 -10 3 -11 -4 -13 -8 -6 -13 15 -9 23
-50 9 -50 -7 0 -7 -4 -1 -12 15 -20 22 -57 12 -64 -5 -3 -9 7 -9 23 -1 24 -2
25 -11 10 -5 -9 -7 -22 -4 -27 3 -6 1 -10 -5 -10 -6 0 -8 -4 -5 -10 3 -5 -1
-10 -10 -10 -15 0 -15 -1 -1 -16 9 -8 16 -18 16 -21 0 -4 -3 -3 -7 0 -8 9 -34
-13 -28 -23 3 -4 -14 -23 -37 -41 -23 -19 -46 -38 -52 -44 -6 -5 -31 -23 -56
-40 -54 -35 -104 -75 -95 -75 4 0 -1 -7 -9 -16 -9 -8 -20 -13 -26 -9 -6 3 -7
0 -4 -9 4 -9 -1 -18 -10 -22 -9 -3 -16 -12 -16 -19 0 -6 -9 -20 -21 -31 -12
-10 -30 -36 -40 -56 -10 -20 -23 -39 -29 -43 -7 -4 -10 93 -10 293 l0 300 98
99 c109 112 214 198 347 285 86 57 122 64 77 15z m-2403 -554 c-8 -10 -32 -36
-54 -58 -22 -22 -98 -102 -170 -176 -71 -75 -164 -165 -206 -202 l-77 -66 -9
-78 -10 -78 -2 72 -1 71 264 266 c146 146 268 266 272 266 3 0 0 -8 -7 -17z
m-174 -243 c3 -5 1 -10 -4 -10 -6 0 -11 5 -11 10 0 6 2 10 4 10 3 0 8 -4 11
-10z m2595 -93 c0 -17 -22 -39 -85 -86 -77 -56 -114 -95 -179 -185 -11 -15
-30 -39 -42 -53 -13 -15 -20 -32 -17 -37 3 -6 3 -8 0 -5 -4 3 -30 -16 -57 -42
-28 -27 -74 -62 -101 -78 l-49 -31 0 35 c0 25 6 37 23 46 51 27 112 88 180
178 40 53 92 116 117 139 43 42 186 142 202 142 4 0 8 -10 8 -23z m-2410 -304
c-11 -21 -20 -45 -20 -53 0 -13 -1 -13 -10 0 -5 8 -10 10 -10 5 0 -6 5 -16 12
-23 9 -9 9 -12 1 -12 -7 0 -10 -9 -8 -20 2 -13 -2 -20 -11 -20 -8 0 -12 5 -9
10 3 6 1 10 -4 10 -20 0 -11 -32 9 -37 29 -8 25 -19 -10 -32 -16 -5 -30 -16
-30 -23 0 -10 -3 -9 -9 2 -6 8 -7 18 -5 22 3 4 -1 5 -9 2 -9 -3 -13 -13 -10
-25 3 -10 0 -19 -6 -19 -6 0 -11 -10 -11 -23 0 -12 -9 -28 -21 -35 -17 -11
-20 -11 -13 0 6 11 5 11 -9 0 -9 -8 -21 -11 -28 -7 -8 5 -9 1 -4 -14 5 -16 2
-21 -10 -21 -11 0 -15 -5 -11 -15 3 -9 -8 -25 -30 -42 -30 -22 -39 -25 -54
-15 -12 7 -21 8 -25 2 -3 -6 1 -10 9 -10 8 0 18 -5 22 -12 5 -7 2 -9 -8 -6
-22 9 -36 -4 -40 -34 -2 -15 -8 -31 -12 -35 -5 -4 -7 7 -4 25 2 17 3 32 2 32
-1 0 -9 -3 -18 -6 -12 -5 -13 -9 -3 -25 19 -31 -21 -59 -49 -34 -7 5 -9 15 -6
20 2 6 -1 5 -8 -2 -10 -9 -10 -15 4 -28 30 -30 37 -52 21 -65 -11 -9 -15 -9
-15 -1 0 6 5 11 11 11 5 0 7 5 4 10 -3 6 -10 10 -15 10 -11 0 -30 -56 -22 -65
11 -10 -21 -25 -33 -15 -7 6 -12 -9 -13 -48 -1 -31 -6 -70 -11 -87 -7 -21 -10
7 -10 102 l-1 132 77 93 c105 127 228 253 353 365 115 102 142 116 110 56z
m1320 -147 c0 -25 -12 -46 -25 -46 -7 0 -12 8 -10 18 1 9 8 16 13 15 6 -2 9 4
6 12 -4 8 -1 15 5 15 6 0 11 -6 11 -14z m4 -84 c3 -5 -1 -9 -9 -9 -8 0 -12 4
-9 9 3 4 7 8 9 8 2 0 6 -4 9 -8z m-118 -37 c-10 -7 -15 -18 -11 -24 3 -6 1
-11 -4 -11 -6 0 -11 6 -11 13 0 16 20 37 35 37 5 0 2 -7 -9 -15z m57 -2 c-6
-16 -5 -17 12 -3 17 14 17 14 5 -7 -10 -16 -18 -19 -26 -12 -13 11 -8 39 7 39
4 0 5 -8 2 -17z m77 13 c0 -2 -7 -6 -15 -10 -8 -3 -15 -1 -15 4 0 6 7 10 15
10 8 0 15 -2 15 -4z m-260 -91 c-7 -9 -15 -13 -17 -11 -7 7 7 26 19 26 6 0 6
-6 -2 -15z m550 -17 c21 -13 -140 -5 -164 9 -13 7 6 8 66 5 45 -2 90 -9 98
-14z m-1950 -67 c0 -5 -7 -11 -15 -15 -15 -5 -20 5 -8 17 9 10 23 9 23 -2z
m170 -74 c0 -2 -10 -12 -22 -23 l-23 -19 19 23 c18 21 26 27 26 19z m1809
-137 c110 -6 189 -14 197 -21 8 -6 14 -21 13 -33 0 -20 -1 -21 -9 -1 -8 19 -9
19 -9 -2 -1 -25 -27 -36 -68 -28 -23 4 -22 3 7 -8 20 -8 38 -10 41 -5 3 5 12
2 19 -7 7 -8 9 -15 4 -16 -5 0 -33 -2 -62 -3 -43 -1 -51 1 -47 14 3 10 1 9 -9
-3 -10 -13 -16 -15 -21 -7 -5 9 -10 9 -18 1 -15 -15 -54 -14 -63 1 -5 8 -2 9
10 5 9 -4 15 -3 11 2 -8 14 -46 9 -41 -5 3 -8 -15 -11 -55 -12 -34 0 -59 4
-59 10 0 7 -4 7 -13 0 -7 -6 -55 -11 -110 -10 -95 0 -98 1 -114 27 -10 14 -30
43 -45 63 l-29 37 23 4 c42 8 261 7 447 -3z m215 -92 c-3 -4 -9 -8 -15 -8 -5
0 -9 4 -9 8 0 5 7 9 15 9 8 0 12 -4 9 -9z m31 -18 c3 -5 -1 -10 -10 -10 -9 0
-13 5 -10 10 3 6 8 10 10 10 2 0 7 -4 10 -10z m195 -219 c0 -9 -94 -41 -122
-41 -10 0 -10 -3 2 -11 13 -9 12 -10 -3 -5 -10 3 -46 -6 -81 -21 -48 -19 -63
-30 -59 -42 4 -13 3 -13 -5 -2 -11 15 -36 6 -27 -10 3 -5 0 -6 -8 -4 -17 7
-156 -83 -184 -119 -14 -17 -24 -23 -28 -16 -15 24 108 121 235 185 61 32 235
94 263 95 9 0 17 -4 17 -9z m10 -52 c-7 -11 -14 -18 -17 -15 -3 3 0 12 7 21
18 21 23 19 10 -6z m-110 -59 c0 -5 -4 -10 -10 -10 -5 0 -10 5 -10 10 0 6 5
10 10 10 6 0 10 -4 10 -10z m-63 -16 c-3 -3 -12 -4 -19 -1 -8 3 -5 6 6 6 11 1
17 -2 13 -5z m-157 -46 c0 -4 -7 -8 -15 -8 -8 0 -15 4 -15 8 0 5 7 9 15 9 8 0
15 -4 15 -9z m48 -43 c-3 -3 -9 2 -12 12 -6 14 -5 15 5 6 7 -7 10 -15 7 -18z
m-58 -25 c0 -5 -5 -10 -11 -10 -5 0 -7 5 -4 10 3 6 8 10 11 10 2 0 4 -4 4 -10z
m-60 -10 c0 -5 -8 -10 -17 -10 -15 0 -16 2 -3 10 19 12 20 12 20 0z m699 -34
c-2 -2 -39 -18 -82 -35 -150 -60 -243 -113 -343 -198 -67 -56 -80 -55 -24 3
47 47 143 115 220 154 85 44 252 99 229 76z"/>
<path d="M2050 4926 c0 -3 52 -79 116 -168 64 -90 295 -432 514 -760 422 -634
466 -698 481 -698 25 0 -49 117 -471 750 -327 491 -492 729 -552 799 -33 38
-88 86 -88 77z"/>
<path d="M3520 3021 c0 -7 -5 -9 -12 -5 -7 5 -8 3 -3 -5 5 -9 10 -10 18 -2 6
6 8 14 4 18 -4 3 -7 1 -7 -6z"/>
<path d="M3530 2969 c0 -15 -5 -19 -15 -15 -8 3 -15 1 -15 -4 0 -6 9 -10 19
-10 11 0 21 -6 24 -12 3 -7 4 4 3 24 -1 39 -16 54 -16 17z"/>
<path d="M3469 2943 c-13 -16 -12 -17 4 -4 16 13 21 21 13 21 -2 0 -10 -8 -17
-17z"/>
<path d="M3370 2939 c0 -5 5 -7 10 -4 6 3 10 8 10 11 0 2 -4 4 -10 4 -5 0 -10
-5 -10 -11z"/>
<path d="M3395 2920 c-2 -3 5 -7 16 -7 10 -1 19 2 19 6 0 9 -29 10 -35 1z"/>
<path d="M3487 2901 c3 -20 2 -22 -9 -13 -17 14 -33 4 -40 -25 -4 -16 -2 -20
9 -16 8 3 12 12 9 19 -3 7 0 16 6 20 7 4 8 3 4 -4 -4 -7 -2 -12 3 -12 6 0 14
0 17 -1 4 0 16 14 27 33 l21 33 -21 -18 c-16 -14 -22 -15 -26 -5 -2 7 -2 2 0
-11z"/>
<path d="M3315 2910 c-3 -6 1 -7 9 -4 18 7 21 14 7 14 -6 0 -13 -4 -16 -10z"/>
<path d="M3335 2870 c-3 -5 -1 -10 4 -10 6 0 11 5 11 10 0 6 -2 10 -4 10 -3 0
-8 -4 -11 -10z"/>
<path d="M3406 2859 c5 -19 3 -21 -5 -9 -12 18 -26 7 -15 -12 5 -7 7 -22 6
-33 -1 -11 5 -3 14 18 12 27 14 41 6 49 -8 8 -9 4 -6 -13z"/>
<path d="M3268 2843 c7 -3 16 -2 19 1 4 3 -2 6 -13 5 -11 0 -14 -3 -6 -6z"/>
<path d="M3201 2794 c0 -11 3 -14 6 -6 3 7 2 16 -1 19 -3 4 -6 -2 -5 -13z"/>
<path d="M3227 2781 c-4 -17 -3 -21 5 -13 5 5 8 16 6 23 -3 8 -7 3 -11 -10z"/>
<path d="M3310 2790 c-9 -6 -10 -10 -3 -10 6 0 15 5 18 10 8 12 4 12 -15 0z"/>
<path d="M3350 2790 c20 -13 33 -13 25 0 -3 6 -14 10 -23 10 -15 0 -15 -2 -2
-10z"/>
<path d="M3310 2758 c0 -9 5 -20 10 -23 13 -8 13 5 0 25 -8 13 -10 13 -10 -2z"/>
<path d="M3345 2761 c-3 -5 -1 -12 5 -16 5 -3 10 1 10 9 0 18 -6 21 -15 7z"/>
<path d="M1820 3880 c-40 -40 -16 -100 39 -100 56 0 83 73 39 104 -30 21 -54
20 -78 -4z"/>
<path d="M4272 3549 c2 -6 8 -10 13 -10 5 0 11 4 13 10 2 6 -4 11 -13 11 -9 0
-15 -5 -13 -11z"/>
<path d="M2165 2870 c3 -5 8 -10 11 -10 2 0 4 5 4 10 0 6 -5 10 -11 10 -5 0
-7 -4 -4 -10z"/>
<path d="M2078 2793 c7 -3 16 -2 19 1 4 3 -2 6 -13 5 -11 0 -14 -3 -6 -6z"/>
<path d="M1980 2684 c0 -8 5 -12 10 -9 6 4 8 11 5 16 -9 14 -15 11 -15 -7z"/>
<path d="M1753 2493 c-17 -6 -17 -23 0 -23 8 0 14 7 14 15 0 8 -1 15 -1 14 -1
0 -7 -3 -13 -6z"/>
<path d="M3787 2293 c-4 -3 -7 -11 -7 -17 0 -6 5 -5 12 2 6 6 9 14 7 17 -3 3
-9 2 -12 -2z"/>
<path d="M3540 2279 c0 -5 5 -7 10 -4 6 3 10 8 10 11 0 2 -4 4 -10 4 -5 0 -10
-5 -10 -11z"/>
</g>
</svg>
